<svg width="42" height="32" viewBox="0 0 42 32" fill="none" xmlns="http://www.w3.org/2000/svg">
<path d="M36 22.0012V9.99877C35.9994 9.47257 35.8451 8.95577 35.5526 8.50021C35.26 8.04464 34.8396 7.66633 34.3333 7.40324L22.6667 1.40201C22.1599 1.13865 21.5851 1 21 1C20.4149 1 19.8401 1.13865 19.3333 1.40201L7.66667 7.40324C7.16044 7.66633 6.73997 8.04464 6.44744 8.50021C6.1549 8.95577 6.0006 9.47257 6 9.99877L6 22.0012C6.0006 22.5274 6.1549 23.0442 6.44744 23.4998C6.73997 23.9554 7.16044 24.3337 7.66667 24.5968L19.3333 30.598C19.8401 30.8614 20.4149 31 21 31C21.5851 31 22.1599 30.8614 22.6667 30.598L34.3333 24.5968C34.8396 24.3337 35.26 23.9554 35.5526 23.4998C35.8451 23.0442 35.9994 22.5274 36 22.0012Z" stroke="#FF4500" stroke-width="2" stroke-linecap="round" stroke-linejoin="round"/>
<path d="M31.3209 14.1251L27.3201 7.19544C27.1444 6.89184 26.883 6.6449 26.5622 6.47939C26.2415 6.31388 25.8726 6.23562 25.4927 6.25247L16.7565 6.67654C16.3762 6.6934 15.9981 6.80496 15.6603 7C15.3224 7.19504 15.0368 7.46669 14.832 7.78765L10.0967 15.1414C9.89209 15.462 9.77543 15.8206 9.7584 16.1811C9.74136 16.5416 9.82454 16.8914 9.99959 17.1954L14.0004 24.1251C14.1762 24.4287 14.4375 24.6756 14.7583 24.8411C15.079 25.0066 15.4479 25.0849 15.8278 25.068L24.564 24.644C24.9443 24.6271 25.3224 24.5155 25.6603 24.3205C25.9981 24.1255 26.2837 23.8538 26.4885 23.5329L31.2238 16.1792C31.4284 15.8585 31.5451 15.4999 31.5621 15.1394C31.5792 14.7789 31.496 14.4291 31.3209 14.1251Z" stroke="#FF4500" stroke-width="2" stroke-linecap="round" stroke-linejoin="round"/>
<path d="M25.0625 12.5002L21.5977 10.4998C21.4457 10.4123 21.2708 10.3707 21.0906 10.3792C20.9103 10.3877 20.731 10.446 20.5707 10.5483L16.8938 12.916C16.7333 13.0184 16.5975 13.1612 16.5 13.3301C16.4025 13.499 16.3467 13.6881 16.3383 13.8782L16.1262 18.2463C16.1178 18.4363 16.1569 18.6207 16.2397 18.7811C16.3225 18.9415 16.4459 19.0722 16.5977 19.16L20.0625 21.1605C20.2145 21.248 20.3894 21.2896 20.5697 21.281C20.75 21.2725 20.9293 21.2142 21.0896 21.1119L24.7664 18.7442C24.9269 18.6419 25.0627 18.499 25.1603 18.3301C25.2578 18.1612 25.3136 17.9722 25.322 17.782L25.534 13.4139C25.5424 13.2239 25.5033 13.0395 25.4206 12.8791C25.3378 12.7187 25.2143 12.5881 25.0625 12.5002Z" stroke="#FF4500" stroke-width="2" stroke-linecap="round" stroke-linejoin="round"/>
<circle cx="2" cy="17" r="2" fill="#FF4500"/>
<circle cx="40" cy="17" r="2" fill="#FF4500"/>
<circle cx="31" cy="2" r="2" fill="#FF4500"/>
<circle cx="11" cy="2" r="2" fill="#FF4500"/>
<circle cx="31" cy="30" r="2" fill="#FF4500"/>
<circle cx="11" cy="30" r="2" fill="#FF4500"/>
</svg>
