<svg width="861" height="300" viewBox="0 0 861 300" fill="none" xmlns="http://www.w3.org/2000/svg">
<circle cx="150" cy="150" r="150" fill="white"/>
<ellipse cx="150.568" cy="178.409" rx="86.9318" ry="62.5" fill="#FF4500"/>
<ellipse cx="72.1591" cy="151.136" rx="22.1591" ry="23.8636" fill="#FF4500"/>
<ellipse cx="227.841" cy="151.136" rx="22.1591" ry="23.8636" fill="#FF4500"/>
<line x1="151.745" y1="117.656" x2="161.972" y2="60.6572" stroke="#FF4500" stroke-width="8"/>
<path d="M158 64L179.005 68.186L189.507 70.279L200.009 72.3719" stroke="#FF4500" stroke-width="8"/>
<ellipse cx="212.5" cy="75" rx="14.7727" ry="15.9091" fill="#FF4500"/>
<ellipse cx="116.477" cy="163.636" rx="16.4773" ry="15.9091" fill="white"/>
<path d="M117.045 203.409C117.855 205.897 121.796 208.207 128.1 209.888C134.404 211.569 142.617 212.5 151.136 212.5C159.656 212.5 167.869 211.569 174.173 209.888C180.476 208.207 184.418 205.897 185.227 203.409" stroke="white" stroke-width="7" stroke-linecap="round" stroke-linejoin="round"/>
<ellipse cx="185.795" cy="163.636" rx="16.4773" ry="15.9091" fill="white"/>
<circle cx="150" cy="150" r="150" fill="white"/>
<ellipse cx="150.568" cy="178.409" rx="86.9318" ry="62.5" fill="#FF4500"/>
<ellipse cx="72.1591" cy="151.136" rx="22.1591" ry="23.8636" fill="#FF4500"/>
<ellipse cx="227.841" cy="151.136" rx="22.1591" ry="23.8636" fill="#FF4500"/>
<line x1="151.745" y1="117.656" x2="161.972" y2="60.6572" stroke="#FF4500" stroke-width="8"/>
<path d="M158 64L179.005 68.186L189.507 70.279L200.009 72.3719" stroke="#FF4500" stroke-width="8"/>
<ellipse cx="212.5" cy="75" rx="14.7727" ry="15.9091" fill="#FF4500"/>
<ellipse cx="116.477" cy="163.636" rx="16.4773" ry="15.9091" fill="white"/>
<path d="M117.045 203.409C117.855 205.897 121.796 208.207 128.1 209.888C134.404 211.569 142.617 212.5 151.136 212.5C159.656 212.5 167.869 211.569 174.173 209.888C180.476 208.207 184.418 205.897 185.227 203.409" stroke="white" stroke-width="7" stroke-linecap="round" stroke-linejoin="round"/>
<ellipse cx="185.795" cy="163.636" rx="16.4773" ry="15.9091" fill="white"/>
<circle cx="771" cy="110" r="19" fill="white"/>
<path d="M372.224 179.888C372.224 177.667 372.551 174.857 373.204 171.46C373.857 168.063 375.033 164.796 376.732 161.66C378.561 158.524 381.044 155.845 384.18 153.624C387.316 151.272 391.367 150.096 396.332 150.096C399.207 150.096 401.624 149.116 403.584 147.156C405.675 145.065 406.72 142.648 406.72 139.904C406.72 137.029 405.675 134.612 403.584 132.652C401.624 130.561 399.207 129.516 396.332 129.516C393.327 129.516 390.452 130.169 387.708 131.476C385.095 132.652 382.677 134.089 380.456 135.788C378.365 137.356 376.601 138.924 375.164 140.492C373.727 142.06 372.747 143.105 372.224 143.628V139.904C372.224 137.029 371.244 134.612 369.284 132.652C367.324 130.561 364.907 129.516 362.032 129.516C359.157 129.516 356.675 130.561 354.584 132.652C352.624 134.612 351.644 137.029 351.644 139.904V232.612C351.644 235.487 352.624 237.969 354.584 240.06C356.675 242.02 359.157 243 362.032 243C364.907 243 367.324 242.02 369.284 240.06C371.244 237.969 372.224 235.487 372.224 232.612V179.888ZM502.685 192.432C505.821 192.432 508.565 191.191 510.917 188.708C513.269 186.225 514.445 182.567 514.445 177.732C514.445 169.892 513.073 162.901 510.329 156.76C507.585 150.619 503.796 145.457 498.961 141.276C494.257 136.964 488.638 133.697 482.105 131.476C475.702 129.255 468.777 128.144 461.329 128.144C453.228 128.144 445.91 129.712 439.377 132.848C432.844 135.853 427.225 139.969 422.521 145.196C417.948 150.423 414.42 156.629 411.937 163.816C409.454 170.872 408.213 178.385 408.213 186.356C408.213 194.065 409.389 201.448 411.741 208.504C414.224 215.56 417.752 221.767 422.325 227.124C427.029 232.351 432.778 236.532 439.573 239.668C446.368 242.804 454.077 244.372 462.701 244.372C471.194 244.372 478.381 243.196 484.261 240.844C490.141 238.492 494.91 235.748 498.569 232.612C502.358 229.476 505.102 226.34 506.801 223.204C508.5 220.068 509.349 217.716 509.349 216.148C509.349 213.535 508.369 211.379 506.409 209.68C504.449 207.981 502.293 207.132 499.941 207.132C498.504 207.132 497.132 207.459 495.825 208.112C494.518 208.765 493.342 209.876 492.297 211.444C490.468 214.188 488.638 216.605 486.809 218.696C484.98 220.656 482.954 222.289 480.733 223.596C478.512 224.903 475.964 225.883 473.089 226.536C470.214 227.189 466.752 227.516 462.701 227.516C457.736 227.516 453.489 226.732 449.961 225.164C446.564 223.465 443.689 221.375 441.337 218.892C438.985 216.409 437.09 213.731 435.653 210.856C434.346 207.851 433.301 205.041 432.517 202.428C431.864 199.815 431.406 197.593 431.145 195.764C431.014 193.804 430.949 192.693 430.949 192.432H502.685ZM461.721 145C467.34 145 472.24 145.849 476.421 147.548C480.602 149.247 484 151.533 486.613 154.408C489.357 157.152 491.382 160.353 492.689 164.012C493.996 167.671 494.649 171.525 494.649 175.576H431.145C431.145 175.315 431.21 174.4 431.341 172.832C431.472 171.133 431.864 169.173 432.517 166.952C433.17 164.731 434.15 162.313 435.457 159.7C436.764 157.087 438.528 154.735 440.749 152.644C443.101 150.423 445.976 148.593 449.373 147.156C452.77 145.719 456.886 145 461.721 145ZM602.259 230.848V232.612C602.259 235.487 603.239 237.969 605.199 240.06C607.159 242.02 609.576 243 612.451 243C615.326 243 617.743 242.02 619.703 240.06C621.794 237.969 622.839 235.487 622.839 232.612V98.548C622.839 95.6733 621.794 93.256 619.703 91.296C617.743 89.336 615.326 88.356 612.451 88.356C609.576 88.356 607.159 89.336 605.199 91.296C603.239 93.256 602.259 95.6733 602.259 98.548V145C601.606 144.216 600.495 142.975 598.927 141.276C597.49 139.577 595.464 137.879 592.851 136.18C590.238 134.351 586.971 132.783 583.051 131.476C579.131 130.169 574.492 129.516 569.135 129.516C562.079 129.516 555.676 130.888 549.927 133.632C544.178 136.376 539.212 140.296 535.031 145.392C530.98 150.357 527.844 156.368 525.623 163.424C523.402 170.349 522.291 177.993 522.291 186.356C522.291 194.719 523.532 202.363 526.015 209.288C528.498 216.213 531.83 222.224 536.011 227.32C540.323 232.285 545.288 236.14 550.907 238.884C556.656 241.628 562.732 243 569.135 243C573.055 243 576.518 242.804 579.523 242.412C582.528 242.02 585.272 241.367 587.755 240.452C590.238 239.407 592.59 238.1 594.811 236.532C597.163 234.964 599.646 233.069 602.259 230.848ZM541.499 186.356C541.499 181.129 542.152 176.164 543.459 171.46C544.896 166.625 546.922 162.379 549.535 158.72C552.279 154.931 555.546 151.925 559.335 149.704C563.124 147.483 567.502 146.372 572.467 146.372C577.432 146.372 581.81 147.483 585.599 149.704C589.519 151.925 592.786 154.931 595.399 158.72C598.012 162.379 599.972 166.625 601.279 171.46C602.716 176.164 603.435 181.129 603.435 186.356C603.435 191.452 602.716 196.417 601.279 201.252C599.972 206.087 598.012 210.333 595.399 213.992C592.786 217.651 589.519 220.591 585.599 222.812C581.81 225.033 577.432 226.144 572.467 226.144C567.502 226.144 563.124 225.033 559.335 222.812C555.546 220.591 552.279 217.651 549.535 213.992C546.922 210.333 544.896 206.087 543.459 201.252C542.152 196.417 541.499 191.452 541.499 186.356ZM715.763 230.848V232.612C715.763 235.487 716.743 237.969 718.703 240.06C720.663 242.02 723.08 243 725.955 243C728.83 243 731.247 242.02 733.207 240.06C735.298 237.969 736.343 235.487 736.343 232.612V98.548C736.343 95.6733 735.298 93.256 733.207 91.296C731.247 89.336 728.83 88.356 725.955 88.356C723.08 88.356 720.663 89.336 718.703 91.296C716.743 93.256 715.763 95.6733 715.763 98.548V145C715.11 144.216 713.999 142.975 712.431 141.276C710.994 139.577 708.968 137.879 706.355 136.18C703.742 134.351 700.475 132.783 696.555 131.476C692.635 130.169 687.996 129.516 682.639 129.516C675.583 129.516 669.18 130.888 663.431 133.632C657.682 136.376 652.716 140.296 648.535 145.392C644.484 150.357 641.348 156.368 639.127 163.424C636.906 170.349 635.795 177.993 635.795 186.356C635.795 194.719 637.036 202.363 639.519 209.288C642.002 216.213 645.334 222.224 649.515 227.32C653.827 232.285 658.792 236.14 664.411 238.884C670.16 241.628 676.236 243 682.639 243C686.559 243 690.022 242.804 693.027 242.412C696.032 242.02 698.776 241.367 701.259 240.452C703.742 239.407 706.094 238.1 708.315 236.532C710.667 234.964 713.15 233.069 715.763 230.848ZM655.003 186.356C655.003 181.129 655.656 176.164 656.963 171.46C658.4 166.625 660.426 162.379 663.039 158.72C665.783 154.931 669.05 151.925 672.839 149.704C676.628 147.483 681.006 146.372 685.971 146.372C690.936 146.372 695.314 147.483 699.103 149.704C703.023 151.925 706.29 154.931 708.903 158.72C711.516 162.379 713.476 166.625 714.783 171.46C716.22 176.164 716.939 181.129 716.939 186.356C716.939 191.452 716.22 196.417 714.783 201.252C713.476 206.087 711.516 210.333 708.903 213.992C706.29 217.651 703.023 220.591 699.103 222.812C695.314 225.033 690.936 226.144 685.971 226.144C681.006 226.144 676.628 225.033 672.839 222.812C669.05 220.591 665.783 217.651 663.039 213.992C660.426 210.333 658.4 206.087 656.963 201.252C655.656 196.417 655.003 191.452 655.003 186.356ZM779.287 243H762.039V137.944H779.287V243ZM836.678 107.564C836.678 104.689 835.633 102.272 833.542 100.312C831.582 98.352 829.165 97.372 826.29 97.372C823.415 97.372 820.998 98.352 819.038 100.312C817.078 102.272 816.098 104.689 816.098 107.564V132.064H808.846C806.363 132.064 804.207 132.979 802.378 134.808C800.679 136.507 799.83 138.597 799.83 141.08C799.83 143.693 800.679 145.849 802.378 147.548C804.207 149.247 806.363 150.096 808.846 150.096H816.098V232.612C816.098 235.487 817.078 237.969 819.038 240.06C820.998 242.02 823.415 243 826.29 243C829.165 243 831.582 242.02 833.542 240.06C835.633 237.969 836.678 235.487 836.678 232.612V150.096H847.458C849.941 150.096 852.031 149.247 853.73 147.548C855.559 145.849 856.474 143.693 856.474 141.08C856.474 138.597 855.559 136.507 853.73 134.808C852.031 132.979 849.941 132.064 847.458 132.064H836.678V107.564Z" fill="#FF4500"/>
</svg>
